#!OML:ASF X:\für Bonn\!DataBase\2005_08_12_Daniel\c3d\Daniel.ASF
:FULLY-SPECIFIED
:DEGREES
175
root 2.02532 17.5262 17.2457 -6.2254 25.8545 0.0550663
lowerback 14.4177 -0.756637 -5.01702
upperback 4.92295 -1.78596 -4.6344
thorax -2.86523 -0.843138 -1.73823
lowerneck 6.72725 -3.38096 1.36161
upperneck 21.9697 -4.83968 2.84399
head 5.60426 -2.02018 0.546918
rclavicle -1.31198e-014 1.27222e-014
rhumerus -18.4453 -6.19363 -50.0112
rradius 122.676
rwrist -29.284
rhand 4.19457 11.4039
rfingers 7.12502
rthumb 29.6014 -16.2548
lclavicle -1.31198e-014 1.27222e-014
lhumerus -29.4327 23.9126 76.311
lradius 30.2089
lwrist -16.7135
lhand -10.1186 -5.64765
lfingers 7.12502
lthumb 15.8695 23.722
rfemur 3.50451 1.74249 20.7096
rtibia 23.0209
rfoot -28.0994 -22.1665
rtoes -8.99934
lfemur -8.65444 -16.5368 -15.2097
ltibia 32.6693
lfoot -18.9141 -8.85936
ltoes -15.2305
176
root 1.98854 17.5143 17.2408 -6.34515 26.6004 -0.00310487
lowerback 14.9203 -0.892355 -5.26739
upperback 5.19873 -2.0111 -4.56982
thorax -2.83025 -0.954975 -1.48808
lowerneck 6.75969 -3.31912 1.44436
upperneck 21.8263 -4.72692 2.7307
head 5.54755 -1.96829 0.501916
rclavicle 1.23246e-014 6.36111e-015
rhumerus -21.6299 -5.44462 -50.7467
rradius 124.622
rwrist -29.6581
rhand 3.95599 11.5735
rfingers 7.12502
rthumb 29.3737 -16.1253
lclavicle 1.23246e-014 6.36111e-015
lhumerus -29.3169 23.3471 76.8572
lradius 31.1389
lwrist -15.7943
lhand -10.0758 -5.80623
lfingers 7.12502
lthumb 15.9106 23.5602
rfemur 3.37462 0.855631 20.7075
rtibia 23.4235
rfoot -28.2599 -21.9744
rtoes -9.01818
lfemur -9.08352 -16.5178 -14.9999
ltibia 33.0484
lfoot -18.8542 -9.61668
ltoes -15.0907
177
root 1.95122 17.5003 17.2338 -6.50072 27.3628 -0.0532668
lowerback 15.4885 -1.03094 -5.50918
upperback 5.49444 -2.24323 -4.5031
thorax -2.80498 -1.07031 -1.23661
lowerneck 6.78588 -3.24656 1.48466
upperneck 21.6514 -4.60021 2.61736
head 5.48273 -1.91346 0.464372
rclavicle -7.95139e-015 7.95139e-015
rhumerus -24.6686 -4.64225 -51.8053
rradius 126.313
rwrist -29.9091
rhand 3.81439 11.8264
rfingers 7.12502
rthumb 29.2385 -15.8961
lclavicle -7.95139e-015 7.95139e-015
lhumerus -29.2034 22.8938 77.3766
lradius 32.0638
lwrist -14.9858
lhand -10.0806 -5.99617
lfingers 7.12502
lthumb 15.906 23.3706
rfemur 3.26304 -0.0641587 20.6824
rtibia 23.852
rfoot -28.4129 -21.7677
rtoes -8.93779
lfemur -9.4811 -16.5214 -14.8157
ltibia 33.4324
lfoot -18.7905 -10.3707
ltoes -14.9944
178
root 1.91429 17.4856 17.2265 -6.64146 28.1116 -0.102668
lowerback 16.0262 -1.16406 -5.74202
upperback 5.80569 -2.4636 -4.42947
thorax -2.74244 -1.18111 -0.983793
lowerneck 6.85849 -3.16036 1.50569
upperneck 21.4069 -4.45333 2.50946
head 5.38896 -1.8517 0.433475
rclavicle -3.73715e-014 4.13472e-014
rhumerus -27.603 -3.85196 -53.144
rradius 127.753
rwrist -30.1455
rhand 3.88234 12.1251
rfingers 7.12502
rthumb 29.3034 -15.5861
lclavicle -3.73715e-014 4.13472e-014
lhumerus -29.1143 22.5803 77.8807
lradius 33.0431
lwrist -14.309
lhand -10.0277 -6.20087
lfingers 7.12502
lthumb 15.957 23.1618
rfemur 3.11785 -1.03194 20.6375
rtibia 24.3029
rfoot -28.52 -21.5223
rtoes -8.96368
lfemur -9.89974 -16.5372 -14.6372
ltibia 33.8221
lfoot -18.7299 -11.0966
ltoes -14.8537
179
root 1.87697 17.4701 17.218 -6.7907 28.853 -0.151916
lowerback 16.5818 -1.28728 -5.94668
upperback 6.13519 -2.66744 -4.36565
thorax -2.66761 -1.28416 -0.758277
lowerneck 6.92905 -3.08283 1.58506
upperneck 21.1041 -4.30663 2.33915
head 5.27511 -1.79006 0.373399
rclavicle -1.03368e-014 2.38542e-014
rhumerus -30.5546 -3.13523 -54.7992
rradius 128.979
rwrist -30.2613
rhand 4.13692 12.564
rfingers 7.12502
rthumb 29.5464 -15.1044
lclavicle -1.03368e-014 2.38542e-014
lhumerus -29.033 22.1946 78.3883
lradius 34.1015
lwrist -13.577
lhand -9.99763 -6.34915
lfingers 7.12502
lthumb 15.9859 23.0112
rfemur 2.96238 -1.99065 20.5839
rtibia 24.7847
rfoot -28.6487 -21.2581
rtoes -8.93947
lfemur -10.3124 -16.546 -14.4696
ltibia 34.2115
lfoot -18.661 -11.7802
ltoes -14.7799
180
root 1.84018 17.4542 17.2084 -6.94812 29.5674 -0.199912
lowerback 17.1727 -1.39916 -6.1441
upperback 6.46036 -2.85902 -4.2959
thorax -2.61189 -1.38102 -0.53016
lowerneck 6.97271 -2.99675 1.62323
upperneck 20.7702 -4.15243 2.17754
head 5.15727 -1.72747 0.322756
rclavicle -3.81667e-014 9.54166e-015
rhumerus -33.508 -2.47244 -56.7147
rradius 130.017
rwrist -30.2732
rhand 4.53805 13.0432
rfingers 7.12502
rthumb 29.9293 -14.5568
lclavicle -3.81667e-014 9.54166e-015
lhumerus -29.022 21.9247 78.8607
lradius 35.2225
lwrist -12.9636
lhand -9.95288 -6.51846
lfingers 7.12502
lthumb 16.029 22.8385
rfemur 2.79892 -2.94826 20.5153
rtibia 25.2869
rfoot -28.7686 -20.966
rtoes -8.92566
lfemur -10.7226 -16.5689 -14.314
ltibia 34.6085
lfoot -18.5822 -12.4496
ltoes -14.5937
181
root 1.80225 17.4374 17.199 -7.10132 30.3013 -0.251531
lowerback 17.7657 -1.50784 -6.32882
upperback 6.7925 -3.04418 -4.22817
thorax -2.54624 -1.4751 -0.310912
lowerneck 6.94765 -2.90172 1.65828
upperneck 20.5029 -3.99083 2.01458
head 5.07196 -1.65929 0.270775
rclavicle 6.36111e-015 4.77083e-015
rhumerus -36.4321 -1.95353 -58.8592
rradius 130.876
rwrist -30.0646
rhand 5.06224 13.4724
rfingers 7.12502
rthumb 30.4293 -14.0363
lclavicle 6.36111e-015 4.77083e-015
lhumerus -29.004 21.6525 79.3337
lradius 36.3656
lwrist -12.2809
lhand -9.91127 -6.67644
lfingers 7.12502
lthumb 16.0691 22.6773
rfemur 2.61594 -3.90206 20.449
rtibia 25.8209
rfoot -28.9269 -20.6729
rtoes -8.86927
lfemur -11.1469 -16.6004 -14.1568
ltibia 35.0108
lfoot -18.5243 -13.0907
ltoes -14.5215
182
root 1.76507 17.4197 17.1834 -7.27161 30.9277 -0.30467
lowerback 18.4243 -1.58815 -6.47648
upperback 7.11812 -3.19315 -4.16059
thorax -2.52096 -1.54998 -0.115521
lowerneck 6.80192 -2.78684 1.64404
upperneck 20.3399 -3.80847 1.83656
head 5.03956 -1.58229 0.220199
rclavicle -2.74323e-014 1.74931e-014
rhumerus -39.254 -1.55745 -61.1877
rradius 131.525
rwrist -29.5854
rhand 5.58104 13.882
rfingers 7.12502
rthumb 30.924 -13.5339
lclavicle -2.74323e-014 1.74931e-014
lhumerus -29.0061 21.4442 79.7906
lradius 37.5267
lwrist -11.6763
lhand -9.8434 -6.82136
lfingers 7.12502
lthumb 16.1344 22.5271
rfemur 2.401 -4.84486 20.3598
rtibia 26.3775
rfoot -28.985 -20.3286
rtoes -8.91461
lfemur -11.5521 -16.6289 -14.0138
ltibia 35.4274
lfoot -18.4339 -13.639
ltoes -14.3241
